<mxfile host="app.diagrams.net" modified="2021-08-15T10:27:38.560Z" agent="5.0 (Windows)" etag="Lq2bJBJAt6vnWcN3HQs1" version="14.9.5" type="github">
  <diagram id="C5RBs43oDa-KdzZeNtuy" name="Page-1">
    <mxGraphModel dx="716" dy="810" grid="1" gridSize="10" guides="1" tooltips="1" connect="1" arrows="1" fold="1" page="1" pageScale="1" pageWidth="827" pageHeight="1169" math="0" shadow="0">
      <root>
        <mxCell id="WIyWlLk6GJQsqaUBKTNV-0" />
        <mxCell id="WIyWlLk6GJQsqaUBKTNV-1" parent="WIyWlLk6GJQsqaUBKTNV-0" />
        <mxCell id="SwUyqH8QLbCfivP0Andj-0" value="&lt;div&gt;CMS&lt;/div&gt;&lt;div&gt;内容管理系统&lt;/div&gt;" style="strokeWidth=2;html=1;shape=mxgraph.flowchart.start_1;whiteSpace=wrap;" vertex="1" parent="WIyWlLk6GJQsqaUBKTNV-1">
          <mxGeometry x="350" y="50" width="100" height="50" as="geometry" />
        </mxCell>
        <mxCell id="SwUyqH8QLbCfivP0Andj-2" value="不同的项目对CMS的定位不同，本项目定位是对各各网站（子站点）页面的管理，主要管理由于运营&lt;br&gt;需要而经常变动的页面，从而实现根据运营需要快速进行页面开发、上线的需求。" style="shape=note;whiteSpace=wrap;html=1;backgroundOutline=1;darkOpacity=0.05;" vertex="1" parent="WIyWlLk6GJQsqaUBKTNV-1">
          <mxGeometry x="470" y="20" width="120" height="150" as="geometry" />
        </mxCell>
      </root>
    </mxGraphModel>
  </diagram>
</mxfile>
